<svg xmlns="http://www.w3.org/2000/svg" width="45" height="45" viewBox="0 0 45 45">
  <g id="Group_102" data-name="Group 102" transform="translate(-824 -729)">
    <path id="Exclusion_1" data-name="Exclusion 1" d="M22.5,45A22.5,22.5,0,0,1,6.59,6.59,22.5,22.5,0,0,1,38.41,38.41,22.353,22.353,0,0,1,22.5,45Zm0-41.625A19.125,19.125,0,1,0,41.625,22.5,19.147,19.147,0,0,0,22.5,3.375Z" transform="translate(824 729)" fill="#fff"/>
    <g id="Layer_2" data-name="Layer 2" transform="translate(832.918 735.174)">
      <g id="Objects" transform="translate(0)">
        <rect id="Rectangle_94" data-name="Rectangle 94" width="3.263" height="17.763" transform="translate(11.963 9.322)" fill="#fff"/>
        <rect id="Rectangle_95" data-name="Rectangle 95" width="3.263" height="2.694" transform="translate(11.963 5.541)" fill="#fff"/>
        <path id="Path_217" data-name="Path 217" d="M77.4,0A3.106,3.106,0,1,0,80.5,3.106,3.106,3.106,0,0,0,77.4,0Zm0,4.609a1.5,1.5,0,1,1,1.5-1.5,1.5,1.5,0,0,1-1.5,1.5Z" transform="translate(-63.802)" fill="#fff"/>
        <path id="Path_218" data-name="Path 218" d="M27.188,137.05a7.77,7.77,0,0,0-5.825,1.735,2.423,2.423,0,0,1,1.115,1.612c-1.05,5.022-8.047,3.661-8.845,3.487v-.017l-.04.008-.038-.008v.017c-.8.174-7.8,1.535-8.846-3.487a2.423,2.423,0,0,1,1.115-1.612A7.78,7.78,0,0,0,0,137.05s3.576,10.73,13.553,12.988h.078C23.612,147.774,27.188,137.05,27.188,137.05Z" transform="translate(0 -117.683)" fill="#fff"/>
        <rect id="Rectangle_96" data-name="Rectangle 96" width="13.247" height="2.538" transform="translate(6.971 7.676)" fill="#fff"/>
        <circle id="Ellipse_235" data-name="Ellipse 235" cx="1.624" cy="1.624" r="1.624" transform="translate(5.283 7.271)" fill="#fff"/>
        <circle id="Ellipse_236" data-name="Ellipse 236" cx="1.624" cy="1.624" r="1.624" transform="translate(18.624 7.271)" fill="#fff"/>
      </g>
    </g>
  </g>
</svg>
