<svg id="Cancel" xmlns="http://www.w3.org/2000/svg" width="19.564" height="19.564" viewBox="0 0 19.564 19.564">
  <path id="Union_3" data-name="Union 3" d="M14.142,15.557c-1.707-1.4-4.028-3.544-6.364-5.842-2.336,2.3-4.657,4.444-6.364,5.842-3.889,3.182-4.6,2.475-1.414-1.415,1.4-1.707,3.544-4.028,5.841-6.364C3.544,5.442,1.4,3.122,0,1.414-3.182-2.475-2.475-3.182,1.414,0,3.122,1.4,5.442,3.544,7.778,5.841,10.114,3.544,12.434,1.4,14.142,0c3.89-3.182,4.6-2.475,1.415,1.414-1.4,1.708-3.544,4.029-5.842,6.364,2.3,2.336,4.444,4.656,5.842,6.364,1.827,2.234,2.372,3.418,1.767,3.419C16.876,17.56,15.8,16.911,14.142,15.557Z" transform="translate(2.004 2.004)" fill="#1271de"/>
</svg>
