<svg xmlns="http://www.w3.org/2000/svg" viewBox="0 0 34.92 6.08"><defs><style>.cls-1{fill:#383330;}</style></defs><g id="Layer_2" data-name="Layer 2"><g id="Layer_1-2" data-name="Layer 1"><path class="cls-1" d="M33.25,2.09a1.15,1.15,0,0,0-.89.39,1.77,1.77,0,0,0-.44,1h2.53v0a1.55,1.55,0,0,0-.34-1,1.08,1.08,0,0,0-.86-.39m.08,4a1.79,1.79,0,0,1-1-.27,1.74,1.74,0,0,1-.68-.74A2.3,2.3,0,0,1,31.44,4V3.84a2.61,2.61,0,0,1,.23-1.1A2,2,0,0,1,32.33,2a1.69,1.69,0,0,1,.92-.28,1.53,1.53,0,0,1,1.22.53,2.14,2.14,0,0,1,.45,1.44v.26h-3V4a1.8,1.8,0,0,0,.41,1.2,1.36,1.36,0,0,0,1,.47,1.38,1.38,0,0,0,1.19-.57l.29.22A1.71,1.71,0,0,1,33.33,6.08ZM30,5.47a1.54,1.54,0,0,1-1.35.61,1.29,1.29,0,0,1-1-.39,1.69,1.69,0,0,1-.36-1.17V1.77h.46v2.7c0,.8.33,1.2,1,1.2A1.2,1.2,0,0,0,30,4.83V1.77h.47V6H30ZM26,6h-.47V0H26ZM24,3.85a2.16,2.16,0,0,0-.33-1.29,1,1,0,0,0-.91-.46,1.26,1.26,0,0,0-.76.22,1.33,1.33,0,0,0-.47.65v1.9a1.23,1.23,0,0,0,1.24.8,1,1,0,0,0,.9-.46A2.31,2.31,0,0,0,24,3.85Zm.47.08A2.57,2.57,0,0,1,24,5.5a1.38,1.38,0,0,1-1.18.58,1.51,1.51,0,0,1-1.33-.66l0,.58h-.44V0h.47V2.39a1.46,1.46,0,0,1,1.32-.7A1.41,1.41,0,0,1,24,2.27a2.57,2.57,0,0,1,.44,1.59ZM19.23.73v1H20V2.6h-.72V4.71a.51.51,0,0,0,.09.34.47.47,0,0,0,.34.1,1.55,1.55,0,0,0,.33,0V6a2.6,2.6,0,0,1-.68.1,1.08,1.08,0,0,1-1.21-1.2V2.6h-.62V1.77h.62v-1Zm-3.48,0a.57.57,0,0,1,.17-.42.74.74,0,0,1,.92,0A.54.54,0,0,1,17,.68a.54.54,0,0,1-.17.42.71.71,0,0,1-.92,0A.57.57,0,0,1,15.75.68ZM17,6H15.81V1.77H17ZM13.29,3,14,1.77h1.2L14,3.84,15.26,6H14.05L13.3,4.67,12.55,6H11.33l1.26-2.16-1.2-2.07H12.6Zm-5-1.26,0,.49A1.48,1.48,0,0,1,9.5,1.69a1.25,1.25,0,0,1,1,.4,1.86,1.86,0,0,1,.33,1.18V6H9.7V3.3a.73.73,0,0,0-.15-.52A.71.71,0,0,0,9,2.61.79.79,0,0,0,8.31,3V6H7.18V1.77ZM5.08.68A.54.54,0,0,1,5.25.26.61.61,0,0,1,5.71.1a.63.63,0,0,1,.46.16.54.54,0,0,1,.17.42.57.57,0,0,1-.17.42.71.71,0,0,1-.92,0A.57.57,0,0,1,5.08.68ZM6.28,6H5.14V1.77H6.28ZM1.17,3.05H2.22a1.06,1.06,0,0,0,.71-.22.82.82,0,0,0,.24-.63.93.93,0,0,0-.24-.67,1,1,0,0,0-.68-.27H1.17Zm0,1V6H0V.31H2.22A2.54,2.54,0,0,1,3.35.55a1.7,1.7,0,0,1,.74.66,1.82,1.82,0,0,1,.26,1,1.63,1.63,0,0,1-.57,1.32A2.39,2.39,0,0,1,2.2,4Z"/></g></g></svg>